<svg width="22" height="22" viewBox="0 0 22 22" fill="none" xmlns="http://www.w3.org/2000/svg">
<path fill-rule="evenodd" clip-rule="evenodd" d="M17.9047 18.0699C14.8485 21.1263 10.3231 21.7867 6.61974 20.074C6.07303 19.8539 5.62481 19.676 5.1987 19.676C4.01182 19.683 2.53449 20.8339 1.76669 20.067C0.998882 19.2991 2.15059 17.8206 2.15059 16.6266C2.15059 16.2004 1.97974 15.7602 1.75965 15.2124C0.046159 11.5096 0.707437 6.98269 3.76359 3.92721C7.66493 0.0244319 14.0033 0.0244322 17.9047 3.9262C21.8131 7.83501 21.806 14.1681 17.9047 18.0699Z" stroke="#686777" stroke-width="1.5" stroke-linecap="round" stroke-linejoin="round"/>
<path d="M14.7727 11.413H14.7817" stroke="#686777" stroke-width="2" stroke-linecap="round" stroke-linejoin="round"/>
<path d="M10.7637 11.413H10.7727" stroke="#686777" stroke-width="2" stroke-linecap="round" stroke-linejoin="round"/>
<path d="M6.75473 11.413H6.76373" stroke="#686777" stroke-width="2" stroke-linecap="round" stroke-linejoin="round"/>
</svg>
