<svg width="48" height="48" viewBox="0 0 48 48" fill="none" xmlns="http://www.w3.org/2000/svg">
<path d="M48 24C48 37.2548 37.2548 48 24 48C10.7452 48 0 37.2548 0 24C0 10.7452 10.7452 0 24 0C37.2548 0 48 10.7452 48 24ZM2.4 24C2.4 35.9293 12.0707 45.6 24 45.6C35.9293 45.6 45.6 35.9293 45.6 24C45.6 12.0707 35.9293 2.4 24 2.4C12.0707 2.4 2.4 12.0707 2.4 24Z" fill="#E2E3E4"/>
<path d="M22.5688 1.24497C22.5272 0.583532 23.0298 0.0104617 23.6925 0.00196873C26.6305 -0.0356843 29.554 0.466477 32.3165 1.48699C35.4547 2.64627 38.3159 4.44886 40.7164 6.77907C43.117 9.10927 45.0038 11.9156 46.2559 15.018C47.358 17.749 47.9469 20.6563 47.9966 23.5941C48.0078 24.2567 47.4499 24.7761 46.7875 24.7542C46.1251 24.7323 45.6094 24.1772 45.5945 23.5147C45.536 20.9115 45.0072 18.3369 44.0303 15.9162C42.9034 13.1241 41.2053 10.5983 39.0448 8.50116C36.8843 6.40398 34.3092 4.78165 31.4848 3.73829C29.0362 2.83373 26.447 2.38167 23.8432 2.40057C23.1805 2.40538 22.6104 1.9064 22.5688 1.24497Z" fill="#3DE3A5"/>
<path d="M12.1495 29.154C10.8428 29.154 9.70883 28.7107 8.74749 27.824L9.57349 26.9C9.99349 27.2827 10.4088 27.5627 10.8195 27.74C11.2395 27.908 11.6968 27.992 12.1915 27.992C12.6395 27.992 13.0268 27.908 13.3535 27.74C13.6802 27.5627 13.9368 27.32 14.1235 27.012C14.3102 26.6947 14.4035 26.3353 14.4035 25.934C14.4035 25.346 14.1935 24.87 13.7735 24.506C13.3628 24.142 12.8262 23.96 12.1635 23.96C11.8275 23.96 11.4915 24.0067 11.1555 24.1C10.8288 24.184 10.4882 24.3147 10.1335 24.492L9.19549 24.212L9.41949 19.2H15.2435V20.362H10.5675L10.4275 23.4C10.7822 23.2227 11.1275 23.0967 11.4635 23.022C11.7995 22.938 12.1542 22.896 12.5275 22.896C13.1808 22.896 13.7455 23.022 14.2215 23.274C14.7068 23.5167 15.0848 23.862 15.3555 24.31C15.6262 24.758 15.7615 25.276 15.7615 25.864C15.7615 26.5173 15.6075 27.0913 15.2995 27.586C15.0008 28.0713 14.5808 28.454 14.0395 28.734C13.4982 29.014 12.8682 29.154 12.1495 29.154ZM15.2909 31.87L21.1149 19.2H22.4869L16.6629 31.87H15.2909ZM23.2983 29V28.02L27.2743 23.792C27.545 23.512 27.755 23.26 27.9043 23.036C28.0536 22.812 28.1563 22.602 28.2123 22.406C28.2776 22.2007 28.3103 21.986 28.3103 21.762C28.3103 21.3233 28.133 20.9593 27.7783 20.67C27.4236 20.3807 26.9756 20.236 26.4343 20.236C25.9863 20.236 25.5663 20.3247 25.1743 20.502C24.7823 20.6793 24.3483 20.9873 23.8723 21.426L23.1163 20.502C23.639 20.0167 24.1756 19.6527 24.7263 19.41C25.2863 19.1673 25.865 19.046 26.4623 19.046C27.0876 19.046 27.6383 19.158 28.1143 19.382C28.5903 19.606 28.959 19.9187 29.2203 20.32C29.491 20.712 29.6263 21.1647 29.6263 21.678C29.6263 22.0047 29.5843 22.308 29.5003 22.588C29.4163 22.8587 29.2716 23.148 29.0663 23.456C28.861 23.7547 28.5716 24.1 28.1983 24.492L25.0063 27.852L29.8223 27.838V29H23.2983ZM35.0819 29.154C34.2606 29.154 33.5419 28.944 32.9259 28.524C32.3099 28.0947 31.8246 27.502 31.4699 26.746C31.1246 25.9807 30.9519 25.0987 30.9519 24.1C30.9519 23.1013 31.1246 22.224 31.4699 21.468C31.8246 20.7027 32.3099 20.11 32.9259 19.69C33.5419 19.2607 34.2606 19.046 35.0819 19.046C35.8939 19.046 36.6079 19.2607 37.2239 19.69C37.8399 20.11 38.3206 20.7027 38.6659 21.468C39.0206 22.224 39.1979 23.1013 39.1979 24.1C39.1979 25.0987 39.0206 25.9807 38.6659 26.746C38.3206 27.502 37.8399 28.0947 37.2239 28.524C36.6079 28.944 35.8939 29.154 35.0819 29.154ZM35.0819 27.936C35.6419 27.936 36.1273 27.782 36.5379 27.474C36.9486 27.1567 37.2659 26.7087 37.4899 26.13C37.7139 25.5513 37.8259 24.8747 37.8259 24.1C37.8259 23.316 37.7139 22.6393 37.4899 22.07C37.2659 21.4913 36.9486 21.048 36.5379 20.74C36.1273 20.4227 35.6419 20.264 35.0819 20.264C34.5219 20.264 34.0366 20.4227 33.6259 20.74C33.2153 21.048 32.8933 21.4913 32.6599 22.07C32.4359 22.6393 32.3239 23.316 32.3239 24.1C32.3239 24.8747 32.4359 25.5513 32.6599 26.13C32.8933 26.7087 33.2153 27.1567 33.6259 27.474C34.0366 27.782 34.5219 27.936 35.0819 27.936Z" fill="#04021D"/>
</svg>
